	    <svg viewBox="0 0 320 440" xmlns="http://www.w3.org/2000/svg" preserveAspectRatio="xMidYMid meet">
    <defs>
    <!-- Tree body -->
      <linearGradient id="pineGrad" x1="0" y1="0" x2="0" y2="1">
        <stop offset="0%" stop-color="#3fa35c"/>
        <stop offset="100%" stop-color="#1f5f3a"/>
      </linearGradient>
    <!-- Body Shadow -->
      <linearGradient id="shadowGrad" x1="0" y1="0" x2="0" y2="1">
        <stop offset="0%" stop-color="#184d2e" stop-opacity="0.5"/>
        <stop offset="100%" stop-color="#0b2e1a" stop-opacity="0.8"/>
      </linearGradient>
    </defs>

    <!-- Tree trunk -->
    <rect x="150" y="370" z="" width="20" height="38" rx="1" fill="#5d4037"/>

    <!-- Tree silhouette -->
    <path
      d="M160 40 C120 80, 95 120, 120 140 C90 160, 70 200, 105 220 C75 245, 60 290, 110 310 C80 340, 90 370, 160 380 C230 370, 240 340, 210 310 C260 290, 245 245, 215 220 C250 200, 230 160, 200 140 C225 120, 200 80, 160 40 Z"
    fill="url(#pineGrad)"/>

  <!-- Depth shading -->
  <path
    d="
      M160 40
      C140 80, 130 120, 145 150
      C125 170, 120 200, 145 225
      C125 255, 130 285, 155 305
      C140 330, 145 360, 160 380
      Z"
    fill="url(#shadowGrad)"/>
    
        </svg>